<svg style="width:24px;height:24px" viewBox="0 0 24 24"><path d="M12 4a7.49 7.49 0 0 1 7.35 6.04c2.6.18 4.65 2.32 4.65 4.96a5 5 0 0 1-5 5H6a6 6 0 0 1-6-6c0-3.09 2.34-5.64 5.35-5.96A7.496 7.496 0 0 1 12 4M7.5 9.69c-1.44 1.81-1.3 4.37.32 5.99C8.66 16.5 9.81 17 11 17v1.86l2.83-2.82L11 13.21V15c-.66 0-1.3-.26-1.77-.73-.84-.84-.97-2.16-.31-3.15L7.5 9.69m1.67-.72l1.45 1.45L12 11.79V10c.66 0 1.3.26 1.77.73.84.84.97 2.16.31 3.15l1.42 1.43c1.44-1.81 1.3-4.37-.32-5.99C14.34 8.5 13.19 8 12 8V6.14L9.17 8.97z"/></svg>